nColumns=28
nRows=26
DataType=double
version=3
OpenSimVersion=4.1
endheader
time	ground_force_1_vx	ground_force_1_vy	ground_force_1_vz	ground_force_1_px	ground_force_1_py	ground_force_1_pz	ground_force_1_mx	ground_force_1_my	ground_force_1_mz	ground_force_2_vx	ground_force_2_vy	ground_force_2_vz	ground_force_2_px	ground_force_2_py	ground_force_2_pz	ground_force_2_mx	ground_force_2_my	ground_force_2_mz	ground_force_3_vx	ground_force_3_vy	ground_force_3_vz	ground_force_3_px	ground_force_3_py	ground_force_3_pz	ground_force_3_mx	ground_force_3_my	ground_force_3_mz
1.45	-188.389	330.565	-15.0194	-0.1123	0.006	-0.425777	0	0.929904	0	-203.108	339.223	14.4263	-0.08193	0.006	-0.785306	0	-0.848983	0	0	0	0	0	0	0	0	0	0
1.46	-358.089	678.065	-69.4442	-0.117625	0.006	-0.423266	0	3.36765	0	-346.775	644.659	69.2014	-0.090461	0.006	-0.790749	0	-2.36718	0	0	0	0	0	0	0	0	0	0
1.47	-190.176	554.122	-108.203	-0.129093	0.006	-0.422167	0	3.93878	0	-196.521	576.811	119.635	-0.107785	0.006	-0.792398	0	-4.16865	0	0	0	0	0	0	0	0	0	0
1.48	-131.846	785.559	-99.9306	-0.177962	0.006	-0.434123	0	-3.44708	0	-106.89	839.208	102.14	-0.159309	0.006	-0.781849	0	2.02617	0	0	0	0	0	0	0	0	0	0
1.49	-27.2517	1378.07	-71.8059	-0.214892	0.006	-0.443027	0	-12.3533	0	10.2693	1309.96	64.9235	-0.191807	0.006	-0.774985	0	7.99234	0	0	0	0	0	0	0	0	0	0
1.5	-39.2265	1356.25	-62.7909	-0.215249	0.006	-0.445106	0	-15.3534	0	-44.1133	1178.46	56.1703	-0.187844	0.006	-0.773636	0	9.80007	0	0	0	0	0	0	0	0	0	0
1.51	-204.374	883.861	-73.487	-0.185496	0.006	-0.443721	0	-10.9445	0	-204.657	776.465	59.3084	-0.156254	0.006	-0.774311	0	7.10153	0	0	0	0	0	0	0	0	0	0
1.52	-243.469	582.124	-76.1442	-0.148185	0.006	-0.441503	0	-5.96662	0	-234.096	555.452	56.507	-0.125305	0.006	-0.7748	0	4.47793	0	0	0	0	0	0	0	0	0	0
1.53	-193.327	496.844	-62.3612	-0.135899	0.006	-0.442503	0	-5.24147	0	-189.795	507.777	46.9984	-0.118821	0.006	-0.773191	0	4.67438	0	0	0	0	0	0	0	0	0	0
1.54	-157.134	483.604	-42.5954	-0.135363	0.006	-0.445608	0	-6.76851	0	-155.645	524.235	32.3323	-0.121572	0.006	-0.770852	0	6.53344	0	0	0	0	0	0	0	0	0	0
1.55	-156.333	491.975	-33.0921	-0.134025	0.006	-0.4482	0	-7.86862	0	-141.425	562.054	27.3753	-0.124244	0.006	-0.769812	0	7.84846	0	0	0	0	0	0	0	0	0	0
1.56	-150.05	516.395	-35.4382	-0.134649	0.006	-0.449502	0	-8.32672	0	-124.503	611.431	42.8729	-0.127406	0.006	-0.770882	0	7.57659	0	0	0	0	0	0	0	0	0	0
1.57	-118.551	544.109	-39.7533	-0.138058	0.006	-0.450076	0	-8.79273	0	-95.4807	660.465	62.4884	-0.130491	0.006	-0.772123	0	6.87897	0	0	0	0	0	0	0	0	0	0
1.58	-85.2869	573.388	-40.3018	-0.141445	0.006	-0.450763	0	-9.35079	0	-73.7894	684.9	70.3236	-0.129846	0.006	-0.772406	0	6.68413	0	0	0	0	0	0	0	0	0	0
1.59	-65.8525	590.553	-38.5028	-0.141399	0.006	-0.451516	0	-9.57319	0	-70.1215	667.317	69.3786	-0.123759	0.006	-0.771995	0	6.59853	0	0	0	0	0	0	0	0	0	0
1.6	-60.1009	579.243	-37.3175	-0.136621	0.006	-0.451772	0	-9.10986	0	-80.4173	629.96	66.4216	-0.114978	0.006	-0.770942	0	6.2676	0	0	0	0	0	0	0	0	0	0
1.61	-62.5147	547.512	-35.0206	-0.12967	0.006	-0.452088	0	-8.14509	0	-94.4528	592.972	64.6654	-0.106361	0.006	-0.769332	0	5.4171	0	0	0	0	0	0	0	0	0	0
1.62	-63.4286	505.18	-31.3367	-0.122863	0.006	-0.452637	0	-6.93483	0	-101.356	560.786	62.4003	-0.099118	0.006	-0.767149	0	4.57792	0	0	0	0	0	0	0	0	0	0
1.63	-60.2633	460.472	-26.7739	-0.117087	0.006	-0.45338	0	-5.75671	0	-98.7452	537.064	57.8231	-0.093921	0.006	-0.764605	0	4.37406	0	0	0	0	0	0	0	0	0	0
1.64	-56.5043	419.776	-21.9043	-0.112401	0.006	-0.454097	0	-4.73259	0	-90.9889	524.094	52.0586	-0.090462	0.006	-0.762297	0	4.74746	0	0	0	0	0	0	0	0	0	0
1.65	-54.0207	386.873	-18.365	-0.108808	0.006	-0.454425	0	-3.91944	0	-82.6819	521.278	46.7818	-0.088246	0.006	-0.760624	0	5.37739	0	0	0	0	0	0	0	0	0	0
1.66	-52.5856	365.132	-17.7392	-0.106335	0.006	-0.454156	0	-3.2373	0	-74.5675	524.05	43.2582	-0.086947	0.006	-0.759619	0	6.04043	0	0	0	0	0	0	0	0	0	0
1.67	-49.3113	356.193	-20.5255	-0.105054	0.006	-0.453437	0	-2.64404	0	-67.0623	528.002	42.1162	-0.086127	0.006	-0.759056	0	6.46355	0	0	0	0	0	0	0	0	0	0
1.68	-42.817	359.236	-26.0224	-0.104745	0.006	-0.452375	0	-2.15634	0	-61.7562	533.002	42.8461	-0.085484	0.006	-0.758997	0	6.6628	0	0	0	0	0	0	0	0	0	0
1.69	-34.3117	370.589	-32.1117	-0.105276	0.006	-0.451215	0	-1.83773	0	-58.1504	539.048	45.5551	-0.084895	0.006	-0.75936	0	6.56119	0	0	0	0	0	0	0	0	0	0
1.7	-26.2437	384.054	-35.5895	-0.106091	0.006	-0.450472	0	-1.8321	0	-54.9418	545.205	49.7246	-0.084252	0.006	-0.759689	0	6.17058	0	0	0	0	0	0	0	0	0	0
